<svg xmlns="http://www.w3.org/2000/svg" width="784" height="168" fill="none"><g fill="#111" clip-path="url(#a)"><path d="m175.806 123.54-.38-8.529-63.845-28.425c-2.676-1.191-4.556-3.516-5.167-6.38a8.94 8.94 0 0 1 2.126-7.93l46.764-51.94-3.121-7.948-8.231-2.272-46.764 51.938a8.954 8.954 0 0 1-7.662 2.944c-2.914-.305-5.42-1.937-6.886-4.47L47.695 0 39.17.513 34.466 7.64l34.67 60.049L6.596 39.84 0 45.268l.38 8.529 63.046 28.07a8.952 8.952 0 0 1 5.167 6.381 8.94 8.94 0 0 1-2.125 7.93L20.292 147.46l3.12 7.948 8.231 2.273 46.177-51.283a8.955 8.955 0 0 1 7.662-2.944 8.965 8.965 0 0 1 6.885 4.47l34.504 59.763 8.526-.512 4.703-7.127-34.229-59.288 63.344 28.202 6.595-5.423h-.004Zm81.265-27.05c.882 12.796 10.439 17.941 21.912 17.941 9.852 0 16.029-3.826 16.029-9.999 0-6.174-5.442-7.647-13.53-9.264l-17.356-3.087C249.42 89.285 238.98 81.05 238.98 65.315c0-18.238 14.265-29.56 36.765-29.56 25.146 0 38.824 12.502 39.265 33.091l-20.59.588c-.588-10.884-8.088-16.176-18.825-16.176-9.411 0-14.706 3.822-14.706 10.146 0 5.295 4.115 7.206 10.88 8.529l17.356 3.087c18.969 3.38 27.648 12.795 27.648 27.942 0 19.119-16.617 28.971-37.794 28.971-24.705 0-42.354-12.203-42.354-34.707l20.442-.735h.004Zm90.788 33.679h-22.206v-92.65h39.117c23.97 0 37.941 11.175 37.941 31.176 0 20.001-13.971 31.323-37.941 31.323h-16.911v30.151Zm16.029-48.09c12.207 0 17.205-4.561 17.205-13.237s-5.001-13.383-17.205-13.383h-16.029v26.62h16.029Zm68.925-44.56v74.265h34.274v18.385h-56.623v-92.65h22.353-.004Zm64.372 0v92.646h-22.353V37.519h22.353Zm8.401 46.323c0-28.53 20.736-48.09 47.205-48.09 26.469 0 42.649 14.706 44.707 38.088l-21.766.734c-1.176-11.619-9.117-19.119-22.5-19.119-15.441 0-24.705 11.175-24.705 28.383 0 17.209 9.558 29.266 26.473 29.266 10.146 0 18.825-5.149 22.059-14.266h-22.206V82.663h43.236v47.499h-19.56v-11.616c-5.001 9.264-15.588 13.383-27.943 13.383-25.737 0-45-19.413-45-48.087Zm104.006 46.327v-92.65h22.353v36.618h40.444V37.52h22.353v92.646h-22.353V92.224h-40.444v37.941h-22.353v.004Zm122.545 0V55.904h-29.65V37.523H784v18.38h-29.653v74.266h-22.21Z"></path></g><defs><clipPath id="a"><path fill="#fff" d="M0 0h784v167.688H0z"></path></clipPath></defs></svg>